# xmcd
#
# Track frame offsets: 
#        150
#        13689
#        24800
#        37553
#        49688
#        60587
#        70782
#        83178
#        93447
#        107019
#        119004
#        131501
#
# Disc length: 1930 seconds
#
# Revision: 0
# Processed by: cddbd v1.5.2PL0 Copyright (c) Steve Scherf et al.
# Submitted via: ExactAudioCopy v0.95b4
#
DISCID=8d07880c
DTITLE=Hillbilly Rawhide - Ramblin' Primitive and Outlaw
DYEAR=2007
DGENRE=Country
TTITLE0=Rawhide
TTITLE1=Ferrovia Centro-Oeste
TTITLE2=White Lightning
TTITLE3=Fugindo Com a Pacotera
TTITLE4=High On The Road
TTITLE5=So Doggone Lonesome
TTITLE6=O Trem
TTITLE7=Honky Tonk BLues
TTITLE8=Vida de Bandoleiro
TTITLE9=Ride This Torpedo
TTITLE10=Caramuru Calibre 32
TTITLE11=O Cachaceiro
EXTD=
EXTT0=
EXTT1=
EXTT2=
EXTT3=
EXTT4=
EXTT5=
EXTT6=
EXTT7=
EXTT8=
EXTT9=
EXTT10=
EXTT11=
PLAYORDER=
